<svg xmlns="http://www.w3.org/2000/svg" width="152.54" height="44.903" viewBox="0 0 152.54 44.903">
  <g id="Group_16539" data-name="Group 16539" transform="translate(12 -33)">
    <g id="Group_16538" data-name="Group 16538" transform="translate(-12 33)">
      <rect id="Rectangle_4782" data-name="Rectangle 4782" width="4.782" height="30.068" transform="translate(94.973 1.151)" fill="#001744"/>
      <path id="Path_30657" data-name="Path 30657" d="M92.915,77l.109-.258H87.74a20.993,20.993,0,0,1-8.21,8.38,21.03,21.03,0,0,1-7.235-7.8H67.013l.111.255a25.75,25.75,0,0,0,7.17,9.616A20.833,20.833,0,0,1,50.867,76.742H45.581L45.69,77A25.636,25.636,0,0,0,79.382,90.511a25.587,25.587,0,0,0,11.349,2.655c.506,0,1.007-.025,1.508-.053V88.336c-.5.035-1,.056-1.508.056a20.854,20.854,0,0,1-6.08-.916A25.679,25.679,0,0,0,92.915,77" transform="translate(-45.581 -60.794)" fill="#001744"/>
      <path id="Path_30658" data-name="Path 30658" d="M176.486,39.011h-4.811a37.06,37.06,0,0,0,19.909,30.658V63.987a32.156,32.156,0,0,1-15.1-24.976" transform="translate(-122.384 -37.86)" fill="#001744"/>
      <path id="Path_30659" data-name="Path 30659" d="M237.885,39.011H242.7a37.068,37.068,0,0,1-19.911,30.658V63.987a32.146,32.146,0,0,0,15.1-24.976" transform="translate(-153.515 -37.86)" fill="#5973a5"/>
      <path id="Path_30662" data-name="Path 30662" d="M324.76,45.826a24.286,24.286,0,0,1,31.437,2.6h6.222a29.078,29.078,0,0,0-46.938,0l37.769,10.2A17.722,17.722,0,0,0,356.2,56c.652-.7,1.207-1.353,1.207-1.353Z" transform="translate(-209.879 -36.334)" fill="#001744"/>
      <path id="Path_30663" data-name="Path 30663" d="M357.4,83.073s-.555.65-1.207,1.353c-3.642,4.118-10.515,7.181-17.246,7.181a24.286,24.286,0,0,1-17.245-7.181h-6.225a29.075,29.075,0,0,0,46.938,0Z" transform="translate(-209.879 -64.659)" fill="#5973a5"/>
      <path id="Path_30664" data-name="Path 30664" d="M87.74,51.9a20.887,20.887,0,0,0-36.873,0H45.581l.109-.26a25.678,25.678,0,0,1,47.225,0l.109.26Z" transform="translate(-45.581 -36.056)" fill="#5973a5"/>
    </g>
    <path id="Path_63438" data-name="Path 63438" d="M-48.339-1.607A2.683,2.683,0,0,0-45.644.1c1.529,0,2.421-.823,2.421-2.117,0-1.117-.588-1.578-1.774-2.078-1.127-.48-1.823-.6-1.823-1.264,0-.461.353-.755.941-.755a1.32,1.32,0,0,1,1.284.911l1.215-.441a2.311,2.311,0,0,0-2.4-1.558c-1.411,0-2.323.813-2.323,1.94a1.78,1.78,0,0,0,.833,1.568,8.811,8.811,0,0,0,1.7.735c.735.274,1.058.519,1.058,1,0,.539-.431.9-1.156.9-.637,0-1.078-.333-1.45-1.088ZM-34.628,0h4.773V-1.215H-33.3V-3.146h2.4V-4.283h-2.4V-5.968H-30V-7.125h-4.626Zm17.023-2.127a1.38,1.38,0,0,1-1.362,1.058c-1.019,0-1.47-.8-1.47-2.45,0-1.715.47-2.568,1.441-2.568a1.212,1.212,0,0,1,1.245,1.039l1.235-.3a2.253,2.253,0,0,0-2.4-1.862c-1.823,0-2.881,1.313-2.881,3.685,0,2.411.96,3.646,2.8,3.646a2.515,2.515,0,0,0,2.626-1.9Zm9.692-.49c0,1.833.872,2.734,2.7,2.734,1.735,0,2.7-.9,2.7-2.519V-7.125h-1.3v4.567c0,1.039-.353,1.5-1.4,1.5-.99,0-1.352-.49-1.352-1.5V-7.125H-7.914ZM6.473,0H7.786V-2.891H9.011L10.383,0h1.441L10.246-3.195A1.724,1.724,0,0,0,11.559-5c0-1.45-.882-2.127-2.675-2.127H6.473ZM7.786-4.018V-6H8.952c.843,0,1.254.294,1.254.99s-.4.99-1.254.99ZM20.546,0H21.9V-7.125H20.546ZM32.3,0h1.352V-5.949H35.52V-7.125h-5.1v1.176H32.3ZM45.2,0h1.343V-2.822l2.038-4.3H47.27l-1.352,2.96-1.372-2.96H43.135L45.2-2.813Z" transform="translate(64.339 77.785)" fill="#001744"/>
  </g>
</svg>
